<svg width="64" height="64" viewBox="0 0 64 64" fill="none" xmlns="http://www.w3.org/2000/svg">
<path d="M42 5.5C41.15 5.5 40.5 6.15 40.5 7C40.5 7.85 41.15 8.5 42 8.5H53.4004L30.2002 31.7002C29.6002 32.3002 29.6002 33.2498 30.2002 33.7998C30.5002 34.0998 30.9 34.25 31.25 34.25C31.6 34.25 31.9998 34.0998 32.2998 33.7998L55.5 10.5996V22C55.5 22.85 56.15 23.5 57 23.5C57.85 23.5 58.5 22.85 58.5 22V7C58.5 6.15 57.85 5.5 57 5.5H42ZM12 15.5C8.4 15.5 5.5 18.4 5.5 22V52C5.5 55.6 8.4 58.5 12 58.5H42C45.6 58.5 48.5 55.6 48.5 52V29.5C48.5 28.65 47.85 28 47 28C46.15 28 45.5 28.65 45.5 29.5V52C45.5 53.95 43.95 55.5 42 55.5H12C10.05 55.5 8.5 53.95 8.5 52V22C8.5 20.05 10.05 18.5 12 18.5H34.5C35.35 18.5 36 17.85 36 17C36 16.15 35.35 15.5 34.5 15.5H12Z" fill="black"/>
</svg>
