<svg width="32" height="32" viewBox="0 0 32 32" fill="none" xmlns="http://www.w3.org/2000/svg">
<path fill-rule="evenodd" clip-rule="evenodd" d="M15.9985 2.61486e-05C7.16437 2.61486e-05 0 7.16345 0 16.0006C0 23.0687 4.58406 29.0661 10.942 31.1828C11.7425 31.3292 12.0343 30.8351 12.0343 30.4108C12.0343 30.0307 12.0205 29.0249 12.0126 27.69C7.56218 28.6565 6.62317 25.5449 6.62317 25.5449C5.89534 23.6963 4.84632 23.2042 4.84632 23.2042C3.39361 22.2121 4.95633 22.2318 4.95633 22.2318C6.56227 22.3448 7.40698 23.881 7.40698 23.881C8.83416 26.3257 11.1522 25.6195 12.0637 25.2099C12.2091 24.1766 12.6226 23.4714 13.0793 23.0716C9.52663 22.6669 5.79122 21.2948 5.79122 15.1637C5.79122 13.4163 6.41494 11.9891 7.43842 10.8704C7.27341 10.4657 6.72434 8.8391 7.59557 6.63596C7.59557 6.63596 8.93827 6.20574 11.995 8.2753C13.2709 7.92071 14.6401 7.74391 16.0005 7.73704C17.3599 7.74391 18.7281 7.92071 20.006 8.2753C23.0607 6.20574 24.4015 6.63596 24.4015 6.63596C25.2747 8.8391 24.7256 10.4657 24.5616 10.8704C25.587 11.9891 26.2058 13.4163 26.2058 15.1637C26.2058 21.3105 22.4645 22.663 18.901 23.0588C19.4746 23.5529 19.9864 24.5292 19.9864 26.0222C19.9864 28.1605 19.9667 29.8863 19.9667 30.4108C19.9667 30.8391 20.2555 31.337 21.0668 31.1809C27.4199 29.0602 32 23.0677 32 16.0006C32 7.16345 24.8356 2.61486e-05 15.9985 2.61486e-05" fill="#1B1817"/>
</svg>
